<svg fill="none" height="24" viewBox="0 0 24 24" width="24" xmlns="http://www.w3.org/2000/svg"><path d="m12.8324 21.8013c3.1259-.6266 7.1676-2.8753 7.1676-8.6901 0-5.2916-3.8733-8.81527-6.6585-10.43435-.618-.35928-1.3415.11321-1.3415.82807v1.82848c0 1.44186-.6062 4.07371-2.29068 5.1684-.86.5589-1.7888-.2776-1.89332-1.29792l-.08583-.83784c-.09977-.97401-1.09176-1.56529-1.87021-.97144-1.39849 1.06684-2.85996 2.935-2.85996 5.7166 0 7.1111 5.28889 8.8889 7.9333 8.8889.1538 0 .3155-.0046.4838-.0143-1.3058-.1116-3.4171-.9218-3.4171-3.5416 0-2.0493 1.49507-3.4357 2.631-4.1096.3055-.1813.6631.0541.6631.4093v.5892c0 .4509.1744 1.1558.5895 1.6383.4698.546 1.1593-.026 1.2149-.7441.0176-.2265.2454-.3709.4416-.2562.6413.3748 1.4599 1.1754 1.4599 2.4731 0 2.048-1.129 2.9901-2.1676 3.3571z" fill="#1c274c"/></svg>